<?xml version='1.0' encoding='utf-8'?>
<!--http://code.google.com/p/vector-playing-cards/-->
<svg xmlns="http://www.w3.org/2000/svg" xmlns:ns1="http://www.inkscape.org/namespaces/inkscape" xmlns:ns2="http://sodipodi.sourceforge.net/DTD/sodipodi-0.dtd" width="167.0869141pt" height="242.6669922pt" viewBox="0 0 167.0869141 242.6669922" version="1.1"><g id="Layer_x0020_1" style="fill-rule:nonzero;clip-rule:nonzero;stroke:#C0C0C0;stroke-miterlimit:4;"><path style="fill:#FFFFFF;stroke-width:1.5;" d="M166.84 235.55c0 3.78-3.09 6.87-6.87 6.87h-152.86c-3.77 0-6.86-3.1-6.86-6.87v-228.43c0-3.78 3.09-6.87 6.86-6.87h152.86c3.78 0 6.87 3.1 6.87 6.87z" id="path5" /><g style="stroke:none;" id="g7"><g id="g9" /></g><g id="g15" /><g id="g19" /><g style="stroke:none;" id="g23"><g id="g25" /></g><g style="stroke:none;" id="g31"><g id="g33" /></g></g><path d="M10.72 28.33q-2.79 0-4.45-1.45-1.66-1.44-2.19-4.34l2.92-.48q.29 1.81 1.27 2.83.98 1.01 2.47 1.01 1.62 0 2.56-1.11.94-1.12.94-3.28v-13.07h-4.24v-2.44h7.21v15.45q0 3.2-1.74 5.04-1.73 1.84-4.75 1.84Z" style="fill:#000000;fill-opacity:1;stroke:none" id="text3788" class="rank-index" /><g transform="matrix(1.1387716,0,0,1.0411919,11.176453,41.884319)" id="layer1-7-2"><path id="sl-7" d="M7.99 3.1c-.24-4.05-7.75-11.69-7.99-13.6-.24 1.9-7.75 9.55-7.99 13.6-.17 2.87 1.7 4.06 3.4 4.06 1.83-.02 3.34-2.8 3.86-3.34.25.72-1.6 6.68-2.17 6.68l5.8 0c-.57 0-2.41-5.96-2.17-6.68.45.5 1.8 3.26 3.87 3.34 1.7 0 3.56-1.19 3.39-4.06z" ns1:connector-curvature="0" style="fill:#000000" ns2:nodetypes="cccccccccc" /></g></svg>