<?xml version='1.0' encoding='utf-8'?>
<!--http://code.google.com/p/vector-playing-cards/-->
<svg xmlns="http://www.w3.org/2000/svg" xmlns:ns1="http://www.inkscape.org/namespaces/inkscape" xmlns:ns2="http://sodipodi.sourceforge.net/DTD/sodipodi-0.dtd" width="167.0869141pt" height="242.6669922pt" viewBox="0 0 167.0869141 242.6669922" version="1.1"><defs><clipPath id="band"><rect x="0" y="0" width="167.0869" height="44.8934" /></clipPath></defs><g id="Layer_x0020_1" style="fill-rule:nonzero;clip-rule:nonzero;stroke:#C0C0C0;stroke-miterlimit:4;"><path style="fill:#FFFFFF;stroke-width:1.5;" d="M166.84 235.55c0 3.78-3.09 6.87-6.87 6.87h-152.86c-3.77 0-6.86-3.1-6.86-6.87v-228.43c0-3.78 3.09-6.87 6.86-6.87h152.86c3.78 0 6.87 3.1 6.87 6.87z" id="path5" /><g style="stroke:none;" id="g7"><g id="g9" /></g><g id="g15" /><g id="g19" /><g style="stroke:none;" id="g23"><g id="g25" /></g><g style="stroke:none;" id="g31"><g id="g33" /></g></g><g clip-path="url(#band)"><path d="M21.21 14.82q0 2.79-.95 4.94-.95 2.15-2.74 3.48-1.78 1.33-4.29 1.67.58 1.77 1.52 2.56.93.79 2.37.79.8 0 1.61-.19v1.89q-1.28.31-2.5.31-2.12 0-3.5-1.2-1.37-1.21-2.24-4.02-2.84-.14-4.84-1.43-2-1.3-3.05-3.55-1.06-2.25-1.06-5.25 0-3.18 1.18-5.43 1.17-2.26 3.38-3.47 2.2-1.21 5.29-1.21 3.12 0 5.32 1.23 2.19 1.23 3.35 3.5 1.15 2.26 1.15 5.38Zm-2.74 0q0-3.7-1.85-5.81-1.85-2.11-5.23-2.11-3.4 0-5.26 2.09-1.86 2.08-1.86 5.83 0 2.48.85 4.3.84 1.82 2.43 2.81 1.59 1 3.81 1 3.44 0 5.27-2.12 1.84-2.12 1.84-5.99Z" style="fill:#df0000;fill-opacity:1;stroke:none" id="text3788" class="rank-index" /><g transform="matrix(2.0445981,0,0,2.3009995,46.373828,49.306264)" id="layer1-2-6"><path style="fill:#df0000" ns1:connector-curvature="0" id="dl-6" d="M3.24-4.73c-2.11-2.86-3.24-5.77-3.24-5.77 0 0-1.13 2.91-3.24 5.77-2.12 2.87-4.76 4.73-4.76 4.73 0 0 2.64 1.86 4.76 4.73 2.11 2.86 3.24 5.77 3.24 5.77 0 0 1.13-2.91 3.24-5.77 2.12-2.87 4.76-4.73 4.76-4.73 0 0-2.64-1.86-4.76-4.73z" ns2:nodetypes="ccccccccc" /></g><g transform="matrix(1.128247,0,0,1.128247,11.157104,40.19725)" id="layer1-2-6-2"><path style="fill:#df0000" ns1:connector-curvature="0" id="dl-6-6" d="M3.24-4.73c-2.11-2.86-3.24-5.77-3.24-5.77 0 0-1.13 2.91-3.24 5.77-2.12 2.87-4.76 4.73-4.76 4.73 0 0 2.64 1.86 4.76 4.73 2.11 2.86 3.24 5.77 3.24 5.77 0 0 1.13-2.91 3.24-5.77 2.12-2.87 4.76-4.73 4.76-4.73 0 0-2.64-1.86-4.76-4.73z" ns2:nodetypes="ccccccccc" /></g><g transform="matrix(0.16077261,0,0,0.15893276,22.108017,22.761321)"><path style="fill:#e2d200;fill-opacity:1" id="path2995" ns1:connector-curvature="0" d="M295.4636,139.2543C297.5465,135.9729 299.6822,132.7208 301.87,129.5C311.26,115.68 319.15,105.28 326.37,97.2C335.41,87.12 335.45,87.02 335.75,74.56C336.13,59.08 336.62,35.16 336.91,17.62C337.05,9.44 337.4,2.12 337.69,1.37C337.98,0.62 339.52,0 341.11,0L344,0L344,7C344,10.85 344.34,13.98 344.75,13.95C345.16,13.92 347.76,10.88 350.53,7.2C354.67,1.67 356.13,0.45 358.78,0.19C360.66,0 362,0.33 362,0.99C362,2.77 355.2,12.91 348.86,20.59C344.07,26.38 343,28.34 343,31.34C343,33.35 343.48,35 344.06,35C346.29,35 360.29,17.62 365.71,8.1C367.16,5.57 369.01,2.71 369.82,1.75C371.46,-0.18 378,-0.7 378,1.1C378,4.4 359.15,29.65 348.44,40.67C343.64,45.61 342,48.02 342,50.09C342,56.03 345.2,54.74 355.36,44.69C367.83,32.36 381.92,12.84 384.92,3.75C386.05,0.31 386.45,0 389.82,0.05C393.37,0.1 393.78,0.51 401.42,11.63C414.32,30.41 424.94,40.78 444.64,53.82C459.73,63.8 476.54,71.56 492.75,76.01C500.01,78 504,78.51 504,77.43C504,77.13 502.89,75.41 501.53,73.63C499.73,71.28 497.21,69.76 492.28,68.09C481.85,64.54 467.78,58.81 465,56.98C463.63,56.07 461.68,55.03 460.67,54.66C457.23,53.42 439.5,41.13 433.47,35.81C422.79,26.4 404,4.24 404,1.06C404,0.48 405.46,0.01 407.25,0.02C410.15,0.04 411.15,0.93 416.5,8.12C427.57,23 446.59,39.29 464,48.8C475.22,54.92 490.28,61.1 491.37,60.02C492.69,58.72 487.34,52.38 483.71,50.95C476.47,48.1 460.36,39.73 454.14,35.58C445.62,29.9 433.88,19.04 426.84,10.34C419.72,1.53 419.14,0 422.94,0C425.28,0 426.78,1.18 430.83,6.25C437.26,14.3 440.33,17.12 452.59,26.31C464.85,35.49 476,41.87 476,39.71C476,38.07 468.87,30.58 465,28.16C460.06,25.08 444.34,12.01 439.9,7.3C433.59,0.59 433.33,0 436.75,0C438.92,0 442.15,2.18 450.05,9C459.67,17.3 462,18.94 462,17.44C462,17.14 460.72,15.22 459.16,13.19C457.59,11.16 454.87,7.48 453.12,5L449.92,0.5L581.12,0.25C653.29,0.11 712.44,0.11 712.58,0.25C712.72,0.39 712.14,5.68 711.28,12C708.91,29.72 709.16,63.46 711.82,84C714.5328,105.0067 718.1012,122.8901 722.9498,139.2543zM528.4068,139.2543C527.0892,130.566 526.6726,125.9898 526.14,117.44L525.37,105.38L520.77,98.94C513.65,88.97 512.72,88.36 499.45,85C462.01,75.53 432,57.62 408.54,30.75C404.82,26.49 401.4,23 400.94,23C400.48,23 397.94,26.21 395.3,30.14C385.14,45.26 366.51,64.75 351.75,75.73L343,82.23L343,89.56C343,93.59 343.46,97.16 344.02,97.51C344.58,97.86 347.4,97.33 350.27,96.33C353.8,95.1 358.27,94.52 364,94.55C371.17,94.59 373.4,95.02 378.18,97.34C384.76,100.51 389.34,105.32 392.6,112.45C396.4946,120.9804 398.2805,129.6231 397.8905,139.2543zM422.8897,139.2543C422.9312,137.4033 421.7171,133.3835 420.01,129.68C418.31,125.98 417.21,122.48 417.57,121.88C417.98,121.22 419.84,121.05 422.44,121.44C426.09,121.99 427.84,121.48 435.76,117.57C450.18,110.44 456.28,108.69 464.5,109.3C473.52,109.97 481.07,112.86 489.63,118.9C496.4935,123.7386 506.976,134.6858 509.4592,139.2543zM474.8331,139.2543C474.775,138.6665 474.5755,138.1755 474.22,137.82C473.7264,137.3264 473.0438,137.7776 472.1126,139.2543L452.8912,139.2543C452.0269,135.9069 449.4831,134.9101 448.55,137.84C448.4293,138.2212 448.3907,138.7033 448.4211,139.2543zM442.7734,139.2543C442.0453,138.2535 441.2963,138.0726 440,138.22C438.9624,138.3373 438.2034,138.7129 437.7207,139.2543zM490.5,125.42c-12.32,-10.8,-30.61,-13.47,-45.61,-6.67c-10.95,4.97,-9.73,6.7,2.61,3.73c12.31,-2.97,28.76,-1.45,38.46,3.56c7.54,3.9,9.4,3.64,4.54,-0.62zM509.5,121.39c-10.53,-6.87,-21.09,-11.86,-30,-14.18c-17.6,-4.58,-29.44,-3.83,-45.18,2.86c-9.88,4.21,-12.49,4.35,-14.4,0.77c-2.6,-4.86,5.62,-13.9,16.33,-17.97c5.35,-2.03,7.98,-2.36,18.25,-2.33c10.66,0.04,13.23,0.42,23,3.38c13.29,4.02,19.44,7.33,30.15,16.24c9.14,7.6,12.35,11.23,12.35,13.97c0,2.97,-2.91,2.2,-10.5,-2.74zM549.4291,139.2543C548.3651,136.909 546.0873,134 544.99,134C544.5349,134 543.5844,136.2377 542.5724,139.2543zM376.6445,139.2543C376.3984,138.481 375.7496,138.1623 374.61,138.6C374.3943,138.6827 374.1445,138.9139 373.8829,139.2543zM538.88,133.56C540.5,127.14 540.29,125.45 537.53,122.31L535.06,119.5L535.03,127.17C534.98,138.64 536.83,141.7 538.88,133.56zM354,123.31c6.31,-2.14,8.58,-2.44,14.31,-1.91c3.75,0.34,9.37,1.57,12.5,2.72c3.13,1.15,6.81,2.3,8.19,2.56l2.5,0.47l-2.5,-2.05c-1.37,-1.13,-6.1,-3.3,-10.5,-4.82c-9.76,-3.38,-20.82,-3.63,-29.5,-0.66c-4.79,1.64,-5.54,2.25,-5.83,4.77c-0.28,2.45,-0.05,2.78,1.5,2.17c1,-0.4,5.2,-1.86,9.33,-3.25zM387,117.25c0,-0.78,-7.77,-6.19,-11.8,-8.22c-4.66,-2.34,-14.81,-3.84,-19.85,-2.93c-7.83,1.42,-12.35,3.82,-12.35,6.55c0,2.81,1.87,3.01,8,0.85c6.64,-2.34,17.5,-1.93,25.47,0.96c3.73,1.35,7.02,2.7,7.32,3c0.81,0.8,3.21,0.65,3.2,-0.21zM350.5,68.62c15.08,-12.2,27.52,-25.74,37.56,-40.88c7.04,-10.62,7.58,-12.12,5.5,-15.29c-2.06,-3.15,-3.12,-3.09,-5.2,0.3c-12,19.63,-22.43,31.9,-41.64,48.94c-3.88,3.44,-4.72,4.8,-4.72,7.58c0,5.82,0.54,5.78,8.5,-0.65z" /><path style="fill:#1156a1;fill-opacity:1" id="path2993" ns1:connector-curvature="0" d="M295.4636,139.2543C297.5465,135.9729 299.6822,132.7208 301.87,129.5C311.26,115.68 319.15,105.28 326.37,97.2C335.41,87.12 335.45,87.02 335.75,74.56C336.13,59.08 336.62,35.16 336.91,17.62C337.05,9.44 337.4,2.12 337.69,1.37C337.98,0.62 339.52,0 341.11,0L344,0L344,7C344,10.85 344.34,13.98 344.75,13.95C345.16,13.92 347.76,10.88 350.53,7.2C354.67,1.67 356.13,0.45 358.78,0.19C360.66,0 362,0.33 362,0.99C362,2.77 355.2,12.91 348.86,20.59C344.07,26.38 343,28.34 343,31.34C343,33.35 343.48,35 344.06,35C346.29,35 360.29,17.62 365.71,8.1C367.16,5.57 369.01,2.71 369.82,1.75C371.46,-0.18 378,-0.7 378,1.1C378,4.4 359.15,29.65 348.44,40.67C343.64,45.61 342,48.02 342,50.09C342,56.03 345.2,54.74 355.36,44.69C367.83,32.36 381.92,12.84 384.92,3.75C386.05,0.31 386.45,0 389.82,0.05C393.37,0.1 393.78,0.51 401.42,11.63C414.32,30.41 424.94,40.78 444.64,53.82C459.73,63.8 476.54,71.56 492.75,76.01C500.01,78 504,78.51 504,77.43C504,77.13 502.89,75.41 501.53,73.63C499.73,71.28 497.21,69.76 492.28,68.09C481.85,64.54 467.78,58.81 465,56.98C463.63,56.07 461.68,55.03 460.67,54.66C457.23,53.42 439.5,41.13 433.47,35.81C422.79,26.4 404,4.24 404,1.06C404,0.48 405.46,0.01 407.25,0.02C410.15,0.04 411.15,0.93 416.5,8.12C427.57,23 446.59,39.29 464,48.8C475.22,54.92 490.28,61.1 491.37,60.02C492.69,58.72 487.34,52.38 483.71,50.95C476.47,48.1 460.36,39.73 454.14,35.58C445.62,29.9 433.88,19.04 426.84,10.34C419.72,1.53 419.14,0 422.94,0C425.28,0 426.78,1.18 430.83,6.25C437.26,14.3 440.33,17.12 452.59,26.31C464.85,35.49 476,41.87 476,39.71C476,38.07 468.87,30.58 465,28.16C460.06,25.08 444.34,12.01 439.9,7.3C433.59,0.59 433.33,0 436.75,0C438.92,0 442.15,2.18 450.05,9C459.67,17.3 462,18.94 462,17.44C462,17.14 460.72,15.22 459.16,13.19C457.59,11.16 454.87,7.48 453.12,5L449.92,0.5L489.22,0.22L528.5,-0.05L531.5,3.3C533.15,5.14 537.65,10.82 541.5,15.92C545.35,21.02 553.71,31.84 560.08,39.96C566.45,48.09 578.66,63.91 587.23,75.12C595.8,86.32 604.01,96.62 605.49,98L608.16,100.5L607.42,97.5C607.02,95.85 605.4,91.35 603.82,87.5C602.25,83.65 600.68,77.8 600.34,74.5C599.51,66.44 598.87,65.48 592.22,62.3C585.56,59.12 573.37,49.38 566.12,41.43C559.79,34.51 552.98,22.06 549.59,11.2C546.59,1.6 546.44,0 548.5,0C549.33,0 550,0.86 550,1.9C550,5.72 556.42,22.67 560.35,29.24C568.41,42.69 580.9,53.8 593.12,58.38C598.24,60.31 599.56,61.24 599.79,63.14C599.95,64.44 601.19,69.89 602.53,75.26C606.6,91.46 615.36,106.68 625.85,115.77C632.57,121.59 643.48,128.31 649.89,130.57C658.908,133.7419 658.7722,133.5038 659.8947,139.2543L668.1364,139.2543C668.0463,138.1361 668,137.0514 668,136.01C668,130.28 666.6,128.51 661.3,127.56C655.3,126.49 640.05,118.59 633.77,113.31C620.01,101.74 610.93,84.54 608.43,65.31L607.76,60.11L597.13,54.92C587.81,50.38 585.38,48.62 577.38,40.62C569.88,33.12 567.55,30 564.18,23C561.95,18.32 559.24,11.24 558.18,7.25L556.26,0L566.44,0L576.61,0L579.72,4.41C582.29,8.05 582.74,9.5 582.32,12.66C581.69,17.41 584.35,28.13 587.52,33.58C590.44,38.62 597.05,44.71 601.72,46.66C606.44,48.63 606.86,47.75 603.19,43.56C596.96,36.47 597.19,27.5 603.76,20.75C606.96,17.46 607.99,17 612.13,17C616.01,17 617.69,17.64 621.57,20.6L626.29,24.2L628.74,21.08C633.99,14.37 644.5,11.98 651.19,15.98C656.95,19.41 659.5,24.35 659.5,32.08C659.5,38.11 659.18,39.21 656.42,42.62C654.72,44.72 652.02,47.16 650.42,48.07C648.25,49.29 647.58,50.32 647.82,52.1C649.52,65.11 645.42,72.9 636.03,74.5C629.46,75.6 621.75,70.57 620.48,64.34C620.22,63.05 619.77,60.87 619.48,59.5C619.14,57.85 618.28,57 616.98,57C611.88,57 616.76,71.47 624.81,80.16C627.78,83.37 630.77,86 631.45,86C633.5,86 635.65,89.18 637.51,95C638.48,98.03 640.13,102.2 641.18,104.3C644.8,111.5 654.45,119 660.12,119C662.81,119 662.44,117.16 659.48,115.81C655.62,114.05 651,106.39 651,101.73C651,90.88 661.36,82.47 670.27,86.08C672.04,86.81 675.12,89.15 677.11,91.3L680.72,95.2L683.99,93.35C685.79,92.33 688.21,90.95 689.39,90.26C690.55,89.59 693.7,89.02 696.39,89.01L701.29,89L700.63,81.25C699.12,63.6 698.84,42.35 699.88,24C700.48,13.28 701.26,3.49 701.61,2.25C702.16,0.27 702.88,0 707.7,0C713.12,0 713.16,0.02 712.62,2.75C708.96,21.29 708.6,58.87 711.82,84C714.523,104.9687 718.0932,122.8654 722.95,139.2543zM528.4068,139.2543C527.0892,130.566 526.6726,125.9898 526.14,117.44L525.37,105.38L520.77,98.94C513.65,88.97 512.72,88.36 499.45,85C462.01,75.53 432,57.62 408.54,30.75C404.82,26.49 401.4,23 400.94,23C400.48,23 397.94,26.21 395.3,30.14C385.14,45.26 366.51,64.75 351.75,75.73L343,82.23L343,89.56C343,93.59 343.46,97.16 344.02,97.51C344.58,97.86 347.4,97.33 350.27,96.33C353.8,95.1 358.27,94.52 364,94.55C371.17,94.59 373.4,95.02 378.18,97.34C384.76,100.51 389.34,105.32 392.6,112.45C396.4946,120.9804 398.2805,129.6231 397.8905,139.2543zM422.8897,139.2543C422.9312,137.4033 421.7171,133.3835 420.01,129.68C418.31,125.98 417.21,122.48 417.57,121.88C417.98,121.22 419.84,121.05 422.44,121.44C426.09,121.99 427.84,121.48 435.76,117.57C450.18,110.44 456.28,108.69 464.5,109.3C473.52,109.97 481.07,112.86 489.63,118.9C496.4935,123.7386 506.976,134.6858 509.4592,139.2543zM474.8331,139.2543C474.775,138.6665 474.5755,138.1755 474.22,137.82C473.7264,137.3264 473.0438,137.7776 472.1126,139.2543L452.8912,139.2543C452.0269,135.9069 449.4831,134.9101 448.55,137.84C448.4293,138.2212 448.3907,138.7033 448.4211,139.2543zM442.7734,139.2543C442.0453,138.2535 441.2963,138.0726 440,138.22C438.9624,138.3373 438.2034,138.7129 437.7207,139.2543zM490.5,125.42c-12.32,-10.8,-30.61,-13.47,-45.61,-6.67c-10.95,4.97,-9.73,6.7,2.61,3.73c12.31,-2.97,28.76,-1.45,38.46,3.56c7.54,3.9,9.4,3.64,4.54,-0.62zM509.5,121.39c-10.53,-6.87,-21.09,-11.86,-30,-14.18c-17.6,-4.58,-29.44,-3.83,-45.18,2.86c-9.88,4.21,-12.49,4.35,-14.4,0.77c-2.6,-4.86,5.62,-13.9,16.33,-17.97c5.35,-2.03,7.98,-2.36,18.25,-2.33c10.66,0.04,13.23,0.42,23,3.38c13.29,4.02,19.44,7.33,30.15,16.24c9.14,7.6,12.35,11.23,12.35,13.97c0,2.97,-2.91,2.2,-10.5,-2.74zM656.5964,139.2543C656.1824,138.1138 655.8341,137.3717 655.61,137.21C655,136.77 652.02,135.31 649,133.97C641.77,130.77 634.8,126.61 627.83,121.31C621.21,116.28 618.93,115.71 621.56,119.75C622.1991,120.7328 628.0825,128.5509 636.2082,139.2543zM712.4807,139.2543C712.0991,137.8006 711.7457,136.383 711.42,135C708.44,122.35 707.52,120 705.49,120C703.2,120 702.54,122.77 704.12,125.73C705.6395,128.581 705.7041,135.1826 704.5374,139.2543L678.2184,139.2543C677.6785,137.922 677.32,136.3822 677.06,134.5C676.34,129.35 673.65,128.96 673.17,133.94C673.0047,135.6785 673.0834,137.4625 673.3812,139.2543zM549.4291,139.2543C548.3651,136.909 546.0873,134 544.99,134C544.5349,134 543.5844,136.2377 542.5724,139.2543zM376.6445,139.2543C376.3984,138.481 375.7496,138.1623 374.61,138.6C374.3943,138.6827 374.1445,138.9139 373.8829,139.2543zM538.88,133.56C540.5,127.14 540.29,125.45 537.53,122.31L535.06,119.5L535.03,127.17C534.98,138.64 536.83,141.7 538.88,133.56zM354,123.31c6.31,-2.14,8.58,-2.44,14.31,-1.91c3.75,0.34,9.37,1.57,12.5,2.72c3.13,1.15,6.81,2.3,8.19,2.56l2.5,0.47l-2.5,-2.05c-1.37,-1.13,-6.1,-3.3,-10.5,-4.82c-9.76,-3.38,-20.82,-3.63,-29.5,-0.66c-4.79,1.64,-5.54,2.25,-5.83,4.77c-0.28,2.45,-0.05,2.78,1.5,2.17c1,-0.4,5.2,-1.86,9.33,-3.25zM685.46,122.38c1.9,-0.73,4.54,-5.47,4.54,-8.16c0,-3.16,-4.45,-6.46,-8.87,-6.58c-5.15,-0.13,-8.13,2.46,-8.13,7.06c0,6.07,6.38,10,12.46,7.68zM387,117.25c0,-0.78,-7.77,-6.19,-11.8,-8.22c-4.66,-2.34,-14.81,-3.84,-19.85,-2.93c-7.83,1.42,-12.35,3.82,-12.35,6.55c0,2.81,1.87,3.01,8,0.85c6.64,-2.34,17.5,-1.93,25.47,0.96c3.73,1.35,7.02,2.7,7.32,3c0.81,0.8,3.21,0.65,3.2,-0.21zM350.5,68.62c15.08,-12.2,27.52,-25.74,37.56,-40.88c7.04,-10.62,7.58,-12.12,5.5,-15.29c-2.06,-3.15,-3.12,-3.09,-5.2,0.3c-12,19.63,-22.43,31.9,-41.64,48.94c-3.88,3.44,-4.72,4.8,-4.72,7.58c0,5.82,0.54,5.78,8.5,-0.65zM631.66,47.52c4.57,-3.2,3.7,-10.3,-1.53,-12.46c-3.83,-1.6,-7.8,-0.38,-10.47,3.19c-1.72,2.3,-1.8,3,-0.68,5.71c0.7,1.7,2.01,3.51,2.9,4.03c2.45,1.43,7.41,1.2,9.78,-0.47z" /><path style="fill:#df0000;fill-opacity:1" id="path2991" ns1:connector-curvature="0" d="M297.2431,139.2543C307.2183,123.6235 317.3309,110.051 329,96.55C333.13,91.78 336.95,86.55 337.5,84.95C338.05,83.35 338.95,81.91 339.5,81.76C341,81.36 342.47,99.34 342.02,112.5C341.94,114.7 341.89,117.51 341.9,118.75C341.95,126.05 342,128.28 342.13,130.75C342.2048,132.0053 342.2244,135.5622 342.1943,139.2543zM552.2477,139.2543C552.0096,138.9047 551.7697,138.5491 551.53,138.19C543.97,126.86 538.83,119.6 536.67,117.22C535.53,115.97 530.75,109.4 526.05,102.62C521.35,95.84 515.38,87.42 512.79,83.9C510.19,80.38 506.47,75.25 504.52,72.5C492.75,55.96 488.22,49.64 486,46.65C475.06,31.95 464.52,17.22 458.38,8C456.36,4.98 453.98,1.96 453.11,1.29C451.83,0.32 459.48,0.06 490.15,0.03L528.79,0L531.65,3.35C533.22,5.19 537.65,10.85 541.5,15.95C545.35,21.03 553.71,31.84 560.08,39.96C566.45,48.09 578.66,63.91 587.23,75.12C595.8,86.32 604.01,96.62 605.49,98L608.16,100.5L607.42,97.5C607.02,95.85 605.4,91.35 603.82,87.5C602.25,83.65 600.68,77.8 600.34,74.5C599.51,66.44 598.87,65.48 592.22,62.3C585.56,59.12 573.37,49.38 566.12,41.43C559.79,34.51 552.98,22.06 549.59,11.2C546.59,1.6 546.44,0 548.5,0C549.33,0 550,0.86 550,1.9C550,5.72 556.42,22.67 560.35,29.24C568.41,42.69 580.9,53.8 593.12,58.38C598.24,60.31 599.56,61.24 599.79,63.14C599.95,64.44 601.19,69.89 602.53,75.26C606.6,91.46 615.36,106.68 625.85,115.77C632.57,121.59 643.48,128.31 649.89,130.57C658.908,133.7419 658.7722,133.5038 659.8947,139.2543L668.1364,139.2543C668.0463,138.1361 668,137.0514 668,136.01C668,130.28 666.6,128.51 661.3,127.56C655.3,126.49 640.05,118.59 633.77,113.31C620.01,101.74 610.93,84.54 608.43,65.31L607.76,60.11L597.13,54.92C587.81,50.38 585.38,48.62 577.38,40.62C569.88,33.12 567.55,30 564.18,23C561.95,18.32 559.24,11.24 558.18,7.25L556.26,0L566.44,0L576.61,0L579.72,4.41C582.29,8.05 582.74,9.5 582.32,12.66C581.69,17.41 584.35,28.13 587.52,33.58C590.44,38.62 597.05,44.71 601.72,46.66C606.44,48.63 606.86,47.75 603.19,43.56C596.96,36.47 597.19,27.5 603.76,20.75C606.96,17.46 607.99,17 612.13,17C616.01,17 617.69,17.64 621.57,20.6L626.29,24.2L628.74,21.08C633.99,14.37 644.5,11.98 651.19,15.98C656.95,19.41 659.5,24.35 659.5,32.08C659.5,38.11 659.18,39.21 656.42,42.62C654.72,44.72 652.02,47.16 650.42,48.07C648.25,49.29 647.58,50.32 647.82,52.1C649.52,65.11 645.42,72.9 636.03,74.5C629.34,75.62 621.77,70.58 620.42,64.09C620.12,62.66 619.67,60.49 619.42,59.25C619.13,57.83 618.23,57 616.98,57C611.88,57 616.76,71.47 624.81,80.16C627.78,83.37 630.77,86 631.45,86C633.5,86 635.65,89.18 637.51,95C638.48,98.03 640.13,102.2 641.18,104.3C644.8,111.5 654.45,119 660.12,119C662.81,119 662.44,117.16 659.48,115.81C655.62,114.05 651,106.39 651,101.73C651,90.88 661.36,82.47 670.27,86.08C672.04,86.81 675.12,89.15 677.11,91.3L680.72,95.2L683.99,93.35C685.79,92.33 688.21,90.95 689.39,90.26C690.55,89.59 693.7,89.02 696.39,89.01L701.29,89L700.63,81.25C699.12,63.6 698.84,42.35 699.88,24C701.21,0.51 701.32,0 705.09,0C707.64,0 707.86,0.24 707.11,2.25C705.48,6.6 703.73,37.51 704.3,52C704.94,68.35 707.23,88 709.02,92.5C711.32,98.23 712.92,106.54 712.96,112.73C712.99,116.87 713.84,121.19 715.52,125.64C716.6309,128.5971 718.2282,133.8488 719.7376,139.2543zM656.5964,139.2543C656.1824,138.1138 655.8341,137.3717 655.61,137.21C655,136.77 652.02,135.31 649,133.97C641.77,130.77 634.8,126.61 627.83,121.31C621.21,116.28 618.93,115.71 621.56,119.75C622.1991,120.7328 628.0825,128.5509 636.2082,139.2543zM712.4807,139.2543C712.0991,137.8006 711.7457,136.383 711.42,135C708.44,122.35 707.52,120 705.49,120C703.2,120 702.54,122.77 704.12,125.73C705.6395,128.581 705.7041,135.1826 704.5374,139.2543L678.2184,139.2543C677.6785,137.922 677.32,136.3822 677.06,134.5C676.34,129.35 673.65,128.96 673.17,133.94C673.0047,135.6785 673.0834,137.4625 673.3812,139.2543zM685.46,122.38c1.9,-0.73,4.54,-5.47,4.54,-8.16c0,-3.16,-4.45,-6.46,-8.87,-6.58c-5.15,-0.13,-8.13,2.46,-8.13,7.06c0,6.07,6.38,10,12.46,7.68zM631.66,47.52c4.57,-3.2,3.7,-10.3,-1.53,-12.46c-3.83,-1.6,-7.8,-0.38,-10.47,3.19c-1.72,2.3,-1.8,3,-0.68,5.71c0.7,1.7,2.01,3.51,2.9,4.03c2.45,1.43,7.41,1.2,9.78,-0.47z" /><path style="fill:#000000;fill-opacity:1" id="path2989" ns1:connector-curvature="0" d="M297.2431,139.2543C307.2183,123.6235 317.3309,110.051 329,96.55C333.13,91.78 336.95,86.55 337.5,84.95C338.05,83.35 338.95,81.91 339.5,81.76C341,81.36 342.47,99.34 342.02,112.5C341.94,114.7 341.89,117.51 341.9,118.75C341.95,126.05 342,128.28 342.13,130.75C342.2048,132.0053 342.2244,135.5622 342.1943,139.2543zM552.2477,139.2543C552.0096,138.9047 551.7697,138.5491 551.53,138.19C543.97,126.86 538.83,119.6 536.67,117.22C535.53,115.97 530.75,109.4 526.05,102.62C521.35,95.84 515.38,87.42 512.79,83.9C510.19,80.38 506.47,75.25 504.52,72.5C492.75,55.96 488.22,49.64 486,46.65C475.06,31.95 464.52,17.22 458.38,8C456.36,4.98 453.98,1.96 453.11,1.29C451.71,0.22 451.82,0.06 454,0.05C455.96,0.03 457.46,1.44 461,6.61C463.48,10.23 467.1,15.28 469.04,17.84C473.32,23.49 492.89,50.51 495.22,54C496.14,55.38 500.81,61.9 505.6,68.5C520.05,88.42 533.13,106.64 540,116.42C543.8456,121.8998 549.748,130.17 556.2816,139.2543zM605.0763,139.2543C605.0105,139.1691 604.9451,139.0843 604.88,139C596.61,128.28 586.44,115.35 582.29,110.27C578.14,105.2 571.77,97.21 568.12,92.51C547.47,65.89 538.97,55.06 534.44,49.6C530.12,44.39 525.61,38.56 508,15.49C506.63,13.69 503.37,9.46 500.76,6.11L496.02,0L512.4,0L528.8,0L531.65,3.35C533.22,5.19 537.65,10.85 541.5,15.95C545.35,21.03 553.71,31.84 560.08,39.96C566.45,48.09 578.66,63.91 587.23,75.12C595.8,86.32 604.01,96.62 605.49,98L608.16,100.5L607.42,97.5C607.02,95.85 605.4,91.35 603.82,87.5C602.25,83.65 600.68,77.8 600.34,74.5C599.51,66.44 598.87,65.48 592.22,62.3C585.56,59.12 573.37,49.38 566.12,41.43C559.79,34.51 552.98,22.06 549.59,11.2C546.59,1.6 546.44,0 548.5,0C549.33,0 550,0.86 550,1.9C550,5.72 556.42,22.67 560.35,29.24C568.41,42.69 580.9,53.8 593.12,58.38C598.24,60.31 599.56,61.24 599.79,63.14C599.95,64.44 601.19,69.89 602.53,75.26C606.6,91.46 615.36,106.68 625.85,115.77C632.57,121.59 643.48,128.31 649.89,130.57C658.908,133.7419 658.7722,133.5038 659.8947,139.2543L668.1364,139.2543C668.0463,138.1361 668,137.0514 668,136.01C668,130.28 666.6,128.51 661.3,127.56C655.3,126.49 640.05,118.59 633.77,113.31C620.01,101.74 610.93,84.54 608.43,65.31L607.76,60.11L597.13,54.92C587.81,50.38 585.38,48.62 577.38,40.62C569.88,33.12 567.55,30 564.18,23C561.95,18.32 559.24,11.24 558.18,7.25L556.26,0L566.44,0L576.61,0L579.72,4.41C582.29,8.05 582.74,9.5 582.32,12.66C581.69,17.41 584.35,28.13 587.52,33.58C590.44,38.62 597.05,44.71 601.72,46.66C606.44,48.63 606.86,47.75 603.19,43.56C596.96,36.47 597.19,27.5 603.76,20.75C606.96,17.46 607.99,17 612.13,17C616.01,17 617.69,17.64 621.57,20.6L626.29,24.2L628.74,21.08C633.99,14.37 644.5,11.98 651.19,15.98C656.95,19.41 659.5,24.35 659.5,32.08C659.5,38.11 659.18,39.21 656.42,42.62C654.72,44.72 652.02,47.16 650.42,48.07C648.25,49.29 647.58,50.32 647.82,52.1C649.52,65.11 645.42,72.9 636.03,74.5C629.58,75.58 621.73,70.56 620.54,64.59C619.12,57.47 618.9,57 616.98,57C611.88,57 616.76,71.47 624.81,80.16C627.78,83.37 630.77,86 631.45,86C633.5,86 635.65,89.18 637.51,95C638.48,98.03 640.13,102.2 641.18,104.3C644.8,111.5 654.45,119 660.12,119C662.81,119 662.44,117.16 659.48,115.81C655.62,114.05 651,106.39 651,101.73C651,90.88 661.36,82.47 670.27,86.08C672.04,86.81 675.12,89.15 677.11,91.3L680.72,95.2L683.99,93.35C685.79,92.33 688.21,90.95 689.39,90.26C690.55,89.59 693.7,89.02 696.39,89.01L701.29,89L700.63,81.25C699.12,63.6 698.84,42.35 699.88,24C701.21,0.51 701.32,0 705.09,0C707.64,0 707.86,0.24 707.11,2.25C705.48,6.6 703.73,37.51 704.3,52C704.94,68.35 707.23,88 709.02,92.5C711.32,98.23 712.92,106.54 712.96,112.73C712.99,116.87 713.84,121.19 715.52,125.64C716.6309,128.5971 718.2282,133.8488 719.7376,139.2543zM656.5964,139.2543C656.1824,138.1138 655.8341,137.3717 655.61,137.21C655,136.77 652.02,135.31 649,133.97C641.77,130.77 634.8,126.61 627.83,121.31C621.21,116.28 618.93,115.71 621.56,119.75C622.1991,120.7328 628.0825,128.5509 636.2082,139.2543zM712.4807,139.2543C712.0991,137.8006 711.7457,136.383 711.42,135C708.44,122.35 707.52,120 705.49,120C703.2,120 702.54,122.77 704.12,125.73C705.6395,128.581 705.7041,135.1826 704.5374,139.2543L678.2184,139.2543C677.6785,137.922 677.32,136.3822 677.06,134.5C676.34,129.35 673.65,128.96 673.17,133.94C673.0047,135.6785 673.0834,137.4625 673.3812,139.2543zM685.46,122.38c1.9,-0.73,4.54,-5.47,4.54,-8.16c0,-3.16,-4.45,-6.46,-8.87,-6.58c-5.15,-0.13,-8.13,2.46,-8.13,7.06c0,6.07,6.38,10,12.46,7.68zM631.66,47.52c4.57,-3.2,3.7,-10.3,-1.53,-12.46c-3.83,-1.6,-7.8,-0.38,-10.47,3.19c-1.72,2.3,-1.8,3,-0.68,5.71c0.7,1.7,2.01,3.51,2.9,4.03c2.45,1.43,7.41,1.2,9.78,-0.47z" /></g><g id="Layer_x0020_1-8" style="fill:none;stroke:#000000;stroke-width:1.82777798;stroke-miterlimit:4;stroke-dasharray:none" transform="matrix(0.73316112,0,0,0.81584336,22.32511,22.465901)"><path ns1:connector-curvature="0" style="fill:none;stroke-width:1.82777798;stroke-miterlimit:4;stroke-dasharray:none" d="M166.84 235.55c0 3.78-3.09 6.87-6.87 6.87h-152.86c-3.77 0-6.86-3.1-6.86-6.87v-228.43c0-3.78 3.09-6.87 6.86-6.87h152.86c3.78 0 6.87 3.1 6.87 6.87z" id="path5-8" /><g style="fill:none;stroke:none" id="g7-4"><g id="g9-3" style="fill:none" /></g><g id="g15-1" style="fill:none;stroke-width:1.82777798;stroke-miterlimit:4;stroke-dasharray:none" /><g id="g19-4" style="fill:none;stroke-width:1.82777798;stroke-miterlimit:4;stroke-dasharray:none" /><g style="fill:none;stroke:none" id="g23-9"><g id="g25-2" style="fill:none" /></g><g style="fill:none;stroke:none" id="g31-0"><g id="g33-6" style="fill:none" /></g></g></g></svg>