<?xml version="1.0" encoding="UTF-8" standalone="no"?><!--http://code.google.com/p/vector-playing-cards/--><svg xmlns:dc="http://purl.org/dc/elements/1.1/" xmlns:cc="http://creativecommons.org/ns#" xmlns:rdf="http://www.w3.org/1999/02/22-rdf-syntax-ns#" xmlns:svg="http://www.w3.org/2000/svg" xmlns="http://www.w3.org/2000/svg" xmlns:xlink="http://www.w3.org/1999/xlink" xmlns:sodipodi="http://sodipodi.sourceforge.net/DTD/sodipodi-0.dtd" xmlns:inkscape="http://www.inkscape.org/namespaces/inkscape" width="167.0869141pt" height="242.6669922pt" viewBox="0 0 167.0869141 242.6669922" xml:space="preserve" id="svg2" version="1.1" inkscape:version="0.48.0 r9654" sodipodi:docname="10_of_diamonds.svg" inkscape:export-filename="/home/byron/art/cards/final/PNGs/10_of_diamonds.png" inkscape:export-xdpi="215.44792" inkscape:export-ydpi="215.44792"><metadata id="metadata43"><rdf:RDF><cc:Work rdf:about=""><dc:format>image/svg+xml</dc:format><dc:type rdf:resource="http://purl.org/dc/dcmitype/StillImage"/><dc:title/></cc:Work></rdf:RDF></metadata><defs id="defs41"><radialGradient inkscape:collect="always" xlink:href="#linearGradient3773" id="radialGradient3781" cx="-0.15782039" cy="-8.8345356" fx="-0.15782039" fy="-8.8345356" r="7.9997029" gradientTransform="matrix(-1.5842693,-0.02349808,0.03071979,-2.4775745,-0.24856378,-26.713507)" gradientUnits="userSpaceOnUse"/><linearGradient id="linearGradient3773"><stop style="stop-color:#000000;stop-opacity:1;" offset="0" id="stop3775"/><stop style="stop-color:#000000;stop-opacity:0.64885497;" offset="1" id="stop3777"/></linearGradient><radialGradient inkscape:collect="always" xlink:href="#linearGradient3773" id="radialGradient3957" cx="-0.15782039" cy="-8.8345356" fx="-0.15782039" fy="-8.8345356" r="7.9997029" gradientTransform="matrix(-1.5842693,-0.02349808,0.03071979,-2.4775745,-0.24856378,-26.713507)" gradientUnits="userSpaceOnUse"/><linearGradient id="linearGradient3959"><stop style="stop-color:#000000;stop-opacity:1;" offset="0" id="stop3961"/><stop style="stop-color:#000000;stop-opacity:0.64885497;" offset="1" id="stop3963"/></linearGradient><radialGradient r="81.902771" fy="509.47577" fx="168.02475" cy="509.47577" cx="168.02475" gradientTransform="matrix(1.2565605,-0.77740644,0.33663816,0.5361257,-221.20213,359.24256)" gradientUnits="userSpaceOnUse" id="radialGradient3975" xlink:href="#linearGradient3784-4" inkscape:collect="always"/><linearGradient id="linearGradient3784-4"><stop style="stop-color:#ffffff;stop-opacity:0.4351145;" offset="0" id="stop3786-8"/><stop style="stop-color:#000000;stop-opacity:0;" offset="1" id="stop3788-6"/></linearGradient><radialGradient inkscape:collect="always" xlink:href="#linearGradient3784-4-5" id="radialGradient3929" gradientUnits="userSpaceOnUse" gradientTransform="matrix(1.2565605,-0.77740644,0.33663816,0.5361257,-221.20213,359.24256)" cx="168.02475" cy="509.47577" fx="168.02475" fy="509.47577" r="81.902771"/><linearGradient id="linearGradient3784-4-5"><stop style="stop-color:#ffffff;stop-opacity:0.48854962;" offset="0" id="stop3786-8-0"/><stop style="stop-color:#000000;stop-opacity:0;" offset="1" id="stop3788-6-3"/></linearGradient><radialGradient inkscape:collect="always" xlink:href="#linearGradient3784-4-1" id="radialGradient3927" gradientUnits="userSpaceOnUse" gradientTransform="matrix(1.2565605,-0.77740644,0.33663816,0.5361257,-221.20213,359.24256)" cx="168.02475" cy="509.47577" fx="168.02475" fy="509.47577" r="81.902771"/><linearGradient id="linearGradient3784-4-1"><stop style="stop-color:#ffffff;stop-opacity:0.23664123;" offset="0" id="stop3786-8-03"/><stop style="stop-color:#000000;stop-opacity:0;" offset="1" id="stop3788-6-6"/></linearGradient><linearGradient id="linearGradient3768"><stop style="stop-color:#df0000;stop-opacity:1;" offset="0" id="stop3770"/><stop style="stop-color:#df0000;stop-opacity:0.67175573;" offset="1" id="stop3772"/></linearGradient><linearGradient id="linearGradient3784-4-6"><stop style="stop-color:#ffffff;stop-opacity:0.31297711;" offset="0" id="stop3786-8-8"/><stop style="stop-color:#000000;stop-opacity:0;" offset="1" id="stop3788-6-8"/></linearGradient><radialGradient r="81.902771" fy="492.63205" fx="159.35434" cy="492.63205" cx="159.35434" gradientTransform="matrix(1.0894779,-0.71513803,0.44645273,0.65626582,-244.93331,290.9185)" gradientUnits="userSpaceOnUse" id="radialGradient4013-8" xlink:href="#linearGradient3784-4-2" inkscape:collect="always"/><linearGradient id="linearGradient3784-4-2"><stop style="stop-color:#ffffff;stop-opacity:0.29007635;" offset="0" id="stop3786-8-1"/><stop style="stop-color:#000000;stop-opacity:0;" offset="1" id="stop3788-6-5"/></linearGradient><linearGradient id="linearGradient2984"><stop style="stop-color:#df0000;stop-opacity:1;" offset="0" id="stop2986"/><stop style="stop-color:#df0000;stop-opacity:0.64122134;" offset="1" id="stop2988"/></linearGradient><linearGradient id="linearGradient3784-4-4"><stop style="stop-color:#ffffff;stop-opacity:0.4351145;" offset="0" id="stop3786-8-8-2"/><stop style="stop-color:#000000;stop-opacity:0;" offset="1" id="stop3788-6-1"/></linearGradient><radialGradient r="81.902771" fy="511.22299" fx="171.48665" cy="511.22299" cx="171.48665" gradientTransform="matrix(1.1529891,-0.67391547,0.39482025,0.67549043,-233.63262,270.40076)" gradientUnits="userSpaceOnUse" id="radialGradient3100" xlink:href="#linearGradient3784-4-4" inkscape:collect="always"/><radialGradient inkscape:collect="always" xlink:href="#linearGradient2984" id="radialGradient3137" gradientUnits="userSpaceOnUse" gradientTransform="matrix(-1.1224159,0.00551393,-0.00908973,-1.8503101,-0.0293938,-10.227695)" cx="1.6632675e-13" cy="-3.2337365" fx="1.6632675e-13" fy="-3.2337365" r="8"/></defs><sodipodi:namedview pagecolor="#ffffff" bordercolor="#666666" borderopacity="1" objecttolerance="10" gridtolerance="10" guidetolerance="10" inkscape:pageopacity="0" inkscape:pageshadow="2" inkscape:window-width="1680" inkscape:window-height="977" id="namedview39" showgrid="false" inkscape:zoom="1.7208768" inkscape:cx="72.124594" inkscape:cy="147.27218" inkscape:window-x="0" inkscape:window-y="25" inkscape:window-maximized="1" inkscape:current-layer="svg2"/><g id="Layer_x0020_1" style="fill-rule:nonzero;clip-rule:nonzero;stroke:#C0C0C0;stroke-miterlimit:4;"><path style="fill:#FFFFFF;stroke-width:1.5;" d="M166.84 235.55c0 3.78-3.09 6.87-6.87 6.87h-152.86c-3.77 0-6.86-3.1-6.86-6.87v-228.43c0-3.78 3.09-6.87 6.86-6.87h152.86c3.78 0 6.87 3.1 6.87 6.87z" id="path5"/><g style="stroke:none;" id="g7"><g id="g9"/></g><g id="g15"/><g id="g19"/><g style="stroke:none;" id="g23"><g id="g25"/></g><g style="stroke:none;" id="g31"><g id="g33"/></g></g><path d="M13.23 24.02v2.39h-13.79v-2.39h5.61v-16.93l-4.97 3.54v-2.65l5.2-3.58h2.6v19.62Z" style="fill:#df0000;fill-opacity:1;stroke:none" id="text3788" class="rank-index"/><g transform="matrix(1.128247,0,0,1.128247,11.157104,40.19725)" id="layer1-2-6"><path style="fill:#df0000" inkscape:connector-curvature="0" id="dl-6" d="M3.24-4.73c-2.11-2.86-3.24-5.77-3.24-5.77 0 0-1.13 2.91-3.24 5.77-2.12 2.87-4.76 4.73-4.76 4.73 0 0 2.64 1.86 4.76 4.73 2.11 2.86 3.24 5.77 3.24 5.77 0 0 1.13-2.91 3.24-5.77 2.12-2.87 4.76-4.73 4.76-4.73 0 0-2.64-1.86-4.76-4.73z" sodipodi:nodetypes="ccccccccc"/></g><g transform="matrix(-1.128247,0,0,-1.128247,155.76212,202.50828)" id="layer1-2-6-4"><path style="fill:#df0000" inkscape:connector-curvature="0" id="dl-6-9" d="M3.24-4.73c-2.11-2.86-3.24-5.77-3.24-5.77 0 0-1.13 2.91-3.24 5.77-2.12 2.87-4.76 4.73-4.76 4.73 0 0 2.64 1.86 4.76 4.73 2.11 2.86 3.24 5.77 3.24 5.77 0 0 1.13-2.91 3.24-5.77 2.12-2.87 4.76-4.73 4.76-4.73 0 0-2.64-1.86-4.76-4.73z" sodipodi:nodetypes="ccccccccc"/></g><g transform="matrix(2.5882908,0,0,2.5882908,54.128726,210.91474)" id="layer1-2-6-8-8"><path style="fill:#df0000" inkscape:connector-curvature="0" id="dl-6-8-8" d="M3.24-4.73c-2.11-2.86-3.24-5.77-3.24-5.77 0 0-1.13 2.91-3.24 5.77-2.12 2.87-4.76 4.73-4.76 4.73 0 0 2.64 1.86 4.76 4.73 2.11 2.86 3.24 5.77 3.24 5.77 0 0 1.13-2.91 3.24-5.77 2.12-2.87 4.76-4.73 4.76-4.73 0 0-2.64-1.86-4.76-4.73z" sodipodi:nodetypes="ccccccccc"/></g><g transform="matrix(2.5882908,0,0,2.5882908,54.128726,31.619539)" id="layer1-2-6-8-2-4"><path style="fill:#df0000" inkscape:connector-curvature="0" id="dl-6-8-6-3" d="M3.24-4.73c-2.11-2.86-3.24-5.77-3.24-5.77 0 0-1.13 2.91-3.24 5.77-2.12 2.87-4.76 4.73-4.76 4.73 0 0 2.64 1.86 4.76 4.73 2.11 2.86 3.24 5.77 3.24 5.77 0 0 1.13-2.91 3.24-5.77 2.12-2.87 4.76-4.73 4.76-4.73 0 0-2.64-1.86-4.76-4.73z" sodipodi:nodetypes="ccccccccc"/></g><g transform="matrix(2.5882908,0,0,2.5882908,54.128726,151.18274)" id="layer1-2-6-8-2-8-1"><path style="fill:#df0000" inkscape:connector-curvature="0" id="dl-6-8-6-8-4" d="M3.24-4.73c-2.11-2.86-3.24-5.77-3.24-5.77 0 0-1.13 2.91-3.24 5.77-2.12 2.87-4.76 4.73-4.76 4.73 0 0 2.64 1.86 4.76 4.73 2.11 2.86 3.24 5.77 3.24 5.77 0 0 1.13-2.91 3.24-5.77 2.12-2.87 4.76-4.73 4.76-4.73 0 0-2.64-1.86-4.76-4.73z" sodipodi:nodetypes="ccccccccc"/></g><g transform="matrix(2.5882908,0,0,2.5882908,54.128726,91.351539)" id="layer1-2-6-8-2-8-1-4"><path style="fill:#df0000" inkscape:connector-curvature="0" id="dl-6-8-6-8-4-9" d="M3.24-4.73c-2.11-2.86-3.24-5.77-3.24-5.77 0 0-1.13 2.91-3.24 5.77-2.12 2.87-4.76 4.73-4.76 4.73 0 0 2.64 1.86 4.76 4.73 2.11 2.86 3.24 5.77 3.24 5.77 0 0 1.13-2.91 3.24-5.77 2.12-2.87 4.76-4.73 4.76-4.73 0 0-2.64-1.86-4.76-4.73z" sodipodi:nodetypes="ccccccccc"/></g><g transform="matrix(2.5882908,0,0,2.5882908,112.89593,210.91474)" id="layer1-2-6-8-8-9"><path style="fill:#df0000" inkscape:connector-curvature="0" id="dl-6-8-8-4" d="M3.24-4.73c-2.11-2.86-3.24-5.77-3.24-5.77 0 0-1.13 2.91-3.24 5.77-2.12 2.87-4.76 4.73-4.76 4.73 0 0 2.64 1.86 4.76 4.73 2.11 2.86 3.24 5.77 3.24 5.77 0 0 1.13-2.91 3.24-5.77 2.12-2.87 4.76-4.73 4.76-4.73 0 0-2.64-1.86-4.76-4.73z" sodipodi:nodetypes="ccccccccc"/></g><g transform="matrix(2.5882908,0,0,2.5882908,112.89593,31.619552)" id="layer1-2-6-8-2-4-9"><path style="fill:#df0000" inkscape:connector-curvature="0" id="dl-6-8-6-3-0" d="M3.24-4.73c-2.11-2.86-3.24-5.77-3.24-5.77 0 0-1.13 2.91-3.24 5.77-2.12 2.87-4.76 4.73-4.76 4.73 0 0 2.64 1.86 4.76 4.73 2.11 2.86 3.24 5.77 3.24 5.77 0 0 1.13-2.91 3.24-5.77 2.12-2.87 4.76-4.73 4.76-4.73 0 0-2.64-1.86-4.76-4.73z" sodipodi:nodetypes="ccccccccc"/></g><g transform="matrix(2.5882908,0,0,2.5882908,112.89593,151.18274)" id="layer1-2-6-8-2-8-1-9"><path style="fill:#df0000" inkscape:connector-curvature="0" id="dl-6-8-6-8-4-1" d="M3.24-4.73c-2.11-2.86-3.24-5.77-3.24-5.77 0 0-1.13 2.91-3.24 5.77-2.12 2.87-4.76 4.73-4.76 4.73 0 0 2.64 1.86 4.76 4.73 2.11 2.86 3.24 5.77 3.24 5.77 0 0 1.13-2.91 3.24-5.77 2.12-2.87 4.76-4.73 4.76-4.73 0 0-2.64-1.86-4.76-4.73z" sodipodi:nodetypes="ccccccccc"/></g><g transform="matrix(2.5882908,0,0,2.5882908,112.89593,91.351542)" id="layer1-2-6-8-2-8-1-4-7"><path style="fill:#df0000" inkscape:connector-curvature="0" id="dl-6-8-6-8-4-9-7" d="M3.24-4.73c-2.11-2.86-3.24-5.77-3.24-5.77 0 0-1.13 2.91-3.24 5.77-2.12 2.87-4.76 4.73-4.76 4.73 0 0 2.64 1.86 4.76 4.73 2.11 2.86 3.24 5.77 3.24 5.77 0 0 1.13-2.91 3.24-5.77 2.12-2.87 4.76-4.73 4.76-4.73 0 0-2.64-1.86-4.76-4.73z" sodipodi:nodetypes="ccccccccc"/></g><g transform="matrix(2.5882908,0,0,2.5882908,83.213394,61.828949)" id="layer1-2-6-8-2-4-8"><path style="fill:#df0000" inkscape:connector-curvature="0" id="dl-6-8-6-3-5" d="M3.24-4.73c-2.11-2.86-3.24-5.77-3.24-5.77 0 0-1.13 2.91-3.24 5.77-2.12 2.87-4.76 4.73-4.76 4.73 0 0 2.64 1.86 4.76 4.73 2.11 2.86 3.24 5.77 3.24 5.77 0 0 1.13-2.91 3.24-5.77 2.12-2.87 4.76-4.73 4.76-4.73 0 0-2.64-1.86-4.76-4.73z" sodipodi:nodetypes="ccccccccc"/></g><g transform="matrix(2.5882908,0,0,2.5882908,83.008034,180.83805)" id="layer1-2-6-8-2-4-8-8"><path style="fill:#df0000" inkscape:connector-curvature="0" id="dl-6-8-6-3-5-8" d="M3.24-4.73c-2.11-2.86-3.24-5.77-3.24-5.77 0 0-1.13 2.91-3.24 5.77-2.12 2.87-4.76 4.73-4.76 4.73 0 0 2.64 1.86 4.76 4.73 2.11 2.86 3.24 5.77 3.24 5.77 0 0 1.13-2.91 3.24-5.77 2.12-2.87 4.76-4.73 4.76-4.73 0 0-2.64-1.86-4.76-4.73z" sodipodi:nodetypes="ccccccccc"/></g><path d="M26.05 15.36q0 5.52-1.95 8.42-1.94 2.91-5.74 2.91-3.8 0-5.7-2.89-1.91-2.89-1.91-8.44 0-5.67 1.85-8.5 1.85-2.83 5.85-2.83 3.89 0 5.75 2.86 1.85 2.86 1.85 8.47Zm-2.86 0q0-3.19-.48-5.18-.48-1.99-1.52-2.93-1.05-.94-2.74-.94-1.72 0-2.79.93-1.08.92-1.57 2.91-.5 1.99-.5 5.21 0 3.13.51 5.13.51 2 1.57 2.95 1.06.95 2.72.95 2.49 0 3.64-2.22 1.16-2.22 1.16-6.81Z" style="fill:#df0000;fill-opacity:1;stroke:none" id="text3788-43" class="rank-index"/><path d="M153.77 218.37v-2.39h13.79v2.39h-5.61v16.94l4.97-3.54v2.65l-5.2 3.58h-2.6v-19.63Z" style="fill:#df0000;fill-opacity:1;stroke:none" id="text3788-4" class="rank-index mirror"/><path d="M140.95 227.04q0-5.52 1.95-8.42 1.94-2.91 5.74-2.91 3.8 0 5.7 2.89 1.91 2.89 1.91 8.44 0 5.67-1.85 8.5-1.85 2.83-5.85 2.83-3.89 0-5.75-2.86-1.85-2.86-1.85-8.47Zm2.86 0q0 3.18.48 5.18.48 1.99 1.52 2.93 1.05.93 2.74.93 1.72 0 2.79-.92 1.08-.92 1.57-2.91.5-1.99.5-5.21 0-3.13-.51-5.13-.51-2-1.57-2.95-1.06-.95-2.72-.95-2.49 0-3.64 2.21-1.16 2.22-1.16 6.82Z" style="fill:#df0000;fill-opacity:1;stroke:none" id="text3788-43-2" class="rank-index mirror"/></svg>