<?xml version="1.0" encoding="UTF-8" standalone="no"?><!--http://code.google.com/p/vector-playing-cards/--><svg xmlns:dc="http://purl.org/dc/elements/1.1/" xmlns:cc="http://creativecommons.org/ns#" xmlns:rdf="http://www.w3.org/1999/02/22-rdf-syntax-ns#" xmlns:svg="http://www.w3.org/2000/svg" xmlns="http://www.w3.org/2000/svg" xmlns:xlink="http://www.w3.org/1999/xlink" xmlns:sodipodi="http://sodipodi.sourceforge.net/DTD/sodipodi-0.dtd" xmlns:inkscape="http://www.inkscape.org/namespaces/inkscape" width="167.0869141pt" height="242.6669922pt" viewBox="0 0 167.0869141 242.6669922" xml:space="preserve" id="svg2" version="1.1" inkscape:version="0.48.0 r9654" sodipodi:docname="6_of_diamonds.svg" inkscape:export-filename="/home/byron/art/cards/final/PNGs/6_of_diamonds.png" inkscape:export-xdpi="215.44792" inkscape:export-ydpi="215.44792"><metadata id="metadata43"><rdf:RDF><cc:Work rdf:about=""><dc:format>image/svg+xml</dc:format><dc:type rdf:resource="http://purl.org/dc/dcmitype/StillImage"/><dc:title/></cc:Work></rdf:RDF></metadata><defs id="defs41"><radialGradient inkscape:collect="always" xlink:href="#linearGradient3773" id="radialGradient3781" cx="-0.15782039" cy="-8.8345356" fx="-0.15782039" fy="-8.8345356" r="7.9997029" gradientTransform="matrix(-1.5842693,-0.02349808,0.03071979,-2.4775745,-0.24856378,-26.713507)" gradientUnits="userSpaceOnUse"/><linearGradient id="linearGradient3773"><stop style="stop-color:#000000;stop-opacity:1;" offset="0" id="stop3775"/><stop style="stop-color:#000000;stop-opacity:0.64885497;" offset="1" id="stop3777"/></linearGradient><radialGradient inkscape:collect="always" xlink:href="#linearGradient3773" id="radialGradient3957" cx="-0.15782039" cy="-8.8345356" fx="-0.15782039" fy="-8.8345356" r="7.9997029" gradientTransform="matrix(-1.5842693,-0.02349808,0.03071979,-2.4775745,-0.24856378,-26.713507)" gradientUnits="userSpaceOnUse"/><linearGradient id="linearGradient3959"><stop style="stop-color:#000000;stop-opacity:1;" offset="0" id="stop3961"/><stop style="stop-color:#000000;stop-opacity:0.64885497;" offset="1" id="stop3963"/></linearGradient><radialGradient r="81.902771" fy="509.47577" fx="168.02475" cy="509.47577" cx="168.02475" gradientTransform="matrix(1.2565605,-0.77740644,0.33663816,0.5361257,-221.20213,359.24256)" gradientUnits="userSpaceOnUse" id="radialGradient3975" xlink:href="#linearGradient3784-4" inkscape:collect="always"/><linearGradient id="linearGradient3784-4"><stop style="stop-color:#ffffff;stop-opacity:0.4351145;" offset="0" id="stop3786-8"/><stop style="stop-color:#000000;stop-opacity:0;" offset="1" id="stop3788-6"/></linearGradient><radialGradient inkscape:collect="always" xlink:href="#linearGradient3784-4-5" id="radialGradient3929" gradientUnits="userSpaceOnUse" gradientTransform="matrix(1.2565605,-0.77740644,0.33663816,0.5361257,-221.20213,359.24256)" cx="168.02475" cy="509.47577" fx="168.02475" fy="509.47577" r="81.902771"/><linearGradient id="linearGradient3784-4-5"><stop style="stop-color:#ffffff;stop-opacity:0.48854962;" offset="0" id="stop3786-8-0"/><stop style="stop-color:#000000;stop-opacity:0;" offset="1" id="stop3788-6-3"/></linearGradient><radialGradient inkscape:collect="always" xlink:href="#linearGradient3784-4-1" id="radialGradient3927" gradientUnits="userSpaceOnUse" gradientTransform="matrix(1.2565605,-0.77740644,0.33663816,0.5361257,-221.20213,359.24256)" cx="168.02475" cy="509.47577" fx="168.02475" fy="509.47577" r="81.902771"/><linearGradient id="linearGradient3784-4-1"><stop style="stop-color:#ffffff;stop-opacity:0.23664123;" offset="0" id="stop3786-8-03"/><stop style="stop-color:#000000;stop-opacity:0;" offset="1" id="stop3788-6-6"/></linearGradient><linearGradient id="linearGradient3768"><stop style="stop-color:#df0000;stop-opacity:1;" offset="0" id="stop3770"/><stop style="stop-color:#df0000;stop-opacity:0.67175573;" offset="1" id="stop3772"/></linearGradient><linearGradient id="linearGradient3784-4-6"><stop style="stop-color:#ffffff;stop-opacity:0.31297711;" offset="0" id="stop3786-8-8"/><stop style="stop-color:#000000;stop-opacity:0;" offset="1" id="stop3788-6-8"/></linearGradient><radialGradient r="81.902771" fy="492.63205" fx="159.35434" cy="492.63205" cx="159.35434" gradientTransform="matrix(1.0894779,-0.71513803,0.44645273,0.65626582,-244.93331,290.9185)" gradientUnits="userSpaceOnUse" id="radialGradient4013-8" xlink:href="#linearGradient3784-4-2" inkscape:collect="always"/><linearGradient id="linearGradient3784-4-2"><stop style="stop-color:#ffffff;stop-opacity:0.29007635;" offset="0" id="stop3786-8-1"/><stop style="stop-color:#000000;stop-opacity:0;" offset="1" id="stop3788-6-5"/></linearGradient><linearGradient id="linearGradient2984"><stop style="stop-color:#df0000;stop-opacity:1;" offset="0" id="stop2986"/><stop style="stop-color:#df0000;stop-opacity:0.64122134;" offset="1" id="stop2988"/></linearGradient><linearGradient id="linearGradient3784-4-4"><stop style="stop-color:#ffffff;stop-opacity:0.4351145;" offset="0" id="stop3786-8-8-2"/><stop style="stop-color:#000000;stop-opacity:0;" offset="1" id="stop3788-6-1"/></linearGradient><radialGradient r="81.902771" fy="511.22299" fx="171.48665" cy="511.22299" cx="171.48665" gradientTransform="matrix(1.1529891,-0.67391547,0.39482025,0.67549043,-233.63262,270.40076)" gradientUnits="userSpaceOnUse" id="radialGradient3100" xlink:href="#linearGradient3784-4-4" inkscape:collect="always"/><radialGradient inkscape:collect="always" xlink:href="#linearGradient2984" id="radialGradient3137" gradientUnits="userSpaceOnUse" gradientTransform="matrix(-1.1224159,0.00551393,-0.00908973,-1.8503101,-0.0293938,-10.227695)" cx="1.6632675e-13" cy="-3.2337365" fx="1.6632675e-13" fy="-3.2337365" r="8"/></defs><sodipodi:namedview pagecolor="#ffffff" bordercolor="#666666" borderopacity="1" objecttolerance="10" gridtolerance="10" guidetolerance="10" inkscape:pageopacity="0" inkscape:pageshadow="2" inkscape:window-width="1680" inkscape:window-height="977" id="namedview39" showgrid="false" inkscape:zoom="1.7208768" inkscape:cx="72.124594" inkscape:cy="147.27218" inkscape:window-x="0" inkscape:window-y="25" inkscape:window-maximized="1" inkscape:current-layer="svg2"/><g id="Layer_x0020_1" style="fill-rule:nonzero;clip-rule:nonzero;stroke:#C0C0C0;stroke-miterlimit:4;"><path style="fill:#FFFFFF;stroke-width:1.5;" d="M166.84 235.55c0 3.78-3.09 6.87-6.87 6.87h-152.86c-3.77 0-6.86-3.1-6.86-6.87v-228.43c0-3.78 3.09-6.87 6.86-6.87h152.86c3.78 0 6.87 3.1 6.87 6.87z" id="path5"/><g style="stroke:none;" id="g7"><g id="g9"/></g><g id="g15"/><g id="g19"/><g style="stroke:none;" id="g23"><g id="g25"/></g><g style="stroke:none;" id="g31"><g id="g33"/></g></g><path d="M16.96 19.21q0 3.48-1.89 5.5-1.89 2.02-5.22 2.02-3.72 0-5.69-2.77-1.97-2.77-1.97-8.05 0-5.72 2.05-8.78 2.04-3.06 5.83-3.06 2.5 0 4.07 1.12 1.57 1.13 2.21 3.36l-2.69.49q-.81-2.69-3.63-2.69-2.4 0-3.72 2.24-1.32 2.25-1.32 6.5.76-1.43 2.15-2.17 1.39-.74 3.19-.74 3.05 0 4.84 1.91 1.79 1.9 1.79 5.12Zm-2.86.13q0-2.4-1.17-3.69-1.18-1.3-3.27-1.3-1.97 0-3.18 1.15-1.21 1.15-1.21 3.16 0 1.69.58 3 .58 1.32 1.58 2.06 1.01.74 2.32.74 2.03 0 3.19-1.37 1.16-1.36 1.16-3.75Z" style="fill:#df0000;fill-opacity:1;stroke:none" id="text3788" class="rank-index"/><path d="M143.1 223.92q0-3.49 1.89-5.5 1.89-2.02 5.22-2.02 3.72 0 5.68 2.77 1.97 2.76 1.97 8.05 0 5.71-2.04 8.78-2.05 3.06-5.83 3.06-2.5 0-4.07-1.13-1.57-1.12-2.21-3.36l2.68-.48q.82 2.69 3.63 2.69 2.41 0 3.73-2.24 1.32-2.25 1.32-6.5-.77 1.43-2.16 2.17-1.39.74-3.19.74-3.04 0-4.83-1.91-1.79-1.9-1.79-5.12Zm2.86-.13q0 2.39 1.17 3.69 1.17 1.3 3.26 1.3 1.97 0 3.18-1.15 1.21-1.15 1.21-3.16 0-1.69-.57-3-.58-1.32-1.59-2.06-1.01-.74-2.32-.74-2.03 0-3.19 1.37-1.15 1.36-1.15 3.75Z" style="fill:#df0000;fill-opacity:1;stroke:none" id="text3788-4" class="rank-index mirror"/><g transform="matrix(1.128247,0,0,1.128247,11.157104,40.19725)" id="layer1-2-6"><path style="fill:#df0000" inkscape:connector-curvature="0" id="dl-6" d="M3.24-4.73c-2.11-2.86-3.24-5.77-3.24-5.77 0 0-1.13 2.91-3.24 5.77-2.12 2.87-4.76 4.73-4.76 4.73 0 0 2.64 1.86 4.76 4.73 2.11 2.86 3.24 5.77 3.24 5.77 0 0 1.13-2.91 3.24-5.77 2.12-2.87 4.76-4.73 4.76-4.73 0 0-2.64-1.86-4.76-4.73z" sodipodi:nodetypes="ccccccccc"/></g><g transform="matrix(-1.128247,0,0,-1.128247,155.76212,202.50828)" id="layer1-2-6-4"><path style="fill:#df0000" inkscape:connector-curvature="0" id="dl-6-9" d="M3.24-4.73c-2.11-2.86-3.24-5.77-3.24-5.77 0 0-1.13 2.91-3.24 5.77-2.12 2.87-4.76 4.73-4.76 4.73 0 0 2.64 1.86 4.76 4.73 2.11 2.86 3.24 5.77 3.24 5.77 0 0 1.13-2.91 3.24-5.77 2.12-2.87 4.76-4.73 4.76-4.73 0 0-2.64-1.86-4.76-4.73z" sodipodi:nodetypes="ccccccccc"/></g><g transform="matrix(2.5882908,0,0,2.5882908,110.12873,192.02194)" id="layer1-2-6-8"><path style="fill:#df0000" inkscape:connector-curvature="0" id="dl-6-8" d="M3.24-4.73c-2.11-2.86-3.24-5.77-3.24-5.77 0 0-1.13 2.91-3.24 5.77-2.12 2.87-4.76 4.73-4.76 4.73 0 0 2.64 1.86 4.76 4.73 2.11 2.86 3.24 5.77 3.24 5.77 0 0 1.13-2.91 3.24-5.77 2.12-2.87 4.76-4.73 4.76-4.73 0 0-2.64-1.86-4.76-4.73z" sodipodi:nodetypes="ccccccccc"/></g><g transform="matrix(2.5882908,0,0,2.5882908,110.12873,50.819539)" id="layer1-2-6-8-2"><path style="fill:#df0000" inkscape:connector-curvature="0" id="dl-6-8-6" d="M3.24-4.73c-2.11-2.86-3.24-5.77-3.24-5.77 0 0-1.13 2.91-3.24 5.77-2.12 2.87-4.76 4.73-4.76 4.73 0 0 2.64 1.86 4.76 4.73 2.11 2.86 3.24 5.77 3.24 5.77 0 0 1.13-2.91 3.24-5.77 2.12-2.87 4.76-4.73 4.76-4.73 0 0-2.64-1.86-4.76-4.73z" sodipodi:nodetypes="ccccccccc"/></g><g transform="matrix(2.5882908,0,0,2.5882908,110.12873,120.52034)" id="layer1-2-6-8-2-8"><path style="fill:#df0000" inkscape:connector-curvature="0" id="dl-6-8-6-8" d="M3.24-4.73c-2.11-2.86-3.24-5.77-3.24-5.77 0 0-1.13 2.91-3.24 5.77-2.12 2.87-4.76 4.73-4.76 4.73 0 0 2.64 1.86 4.76 4.73 2.11 2.86 3.24 5.77 3.24 5.77 0 0 1.13-2.91 3.24-5.77 2.12-2.87 4.76-4.73 4.76-4.73 0 0-2.64-1.86-4.76-4.73z" sodipodi:nodetypes="ccccccccc"/></g><g transform="matrix(2.5882908,0,0,2.5882908,56.013391,192.14005)" id="layer1-2-6-8-8"><path style="fill:#df0000" inkscape:connector-curvature="0" id="dl-6-8-8" d="M3.24-4.73c-2.11-2.86-3.24-5.77-3.24-5.77 0 0-1.13 2.91-3.24 5.77-2.12 2.87-4.76 4.73-4.76 4.73 0 0 2.64 1.86 4.76 4.73 2.11 2.86 3.24 5.77 3.24 5.77 0 0 1.13-2.91 3.24-5.77 2.12-2.87 4.76-4.73 4.76-4.73 0 0-2.64-1.86-4.76-4.73z" sodipodi:nodetypes="ccccccccc"/></g><g transform="matrix(2.5882908,0,0,2.5882908,56.013391,50.937663)" id="layer1-2-6-8-2-4"><path style="fill:#df0000" inkscape:connector-curvature="0" id="dl-6-8-6-3" d="M3.24-4.73c-2.11-2.86-3.24-5.77-3.24-5.77 0 0-1.13 2.91-3.24 5.77-2.12 2.87-4.76 4.73-4.76 4.73 0 0 2.64 1.86 4.76 4.73 2.11 2.86 3.24 5.77 3.24 5.77 0 0 1.13-2.91 3.24-5.77 2.12-2.87 4.76-4.73 4.76-4.73 0 0-2.64-1.86-4.76-4.73z" sodipodi:nodetypes="ccccccccc"/></g><g transform="matrix(2.5882908,0,0,2.5882908,56.013391,120.63845)" id="layer1-2-6-8-2-8-1"><path style="fill:#df0000" inkscape:connector-curvature="0" id="dl-6-8-6-8-4" d="M3.24-4.73c-2.11-2.86-3.24-5.77-3.24-5.77 0 0-1.13 2.91-3.24 5.77-2.12 2.87-4.76 4.73-4.76 4.73 0 0 2.64 1.86 4.76 4.73 2.11 2.86 3.24 5.77 3.24 5.77 0 0 1.13-2.91 3.24-5.77 2.12-2.87 4.76-4.73 4.76-4.73 0 0-2.64-1.86-4.76-4.73z" sodipodi:nodetypes="ccccccccc"/></g></svg>