<?xml version="1.0" encoding="UTF-8" standalone="no"?><!--http://code.google.com/p/vector-playing-cards/--><svg xmlns:dc="http://purl.org/dc/elements/1.1/" xmlns:cc="http://creativecommons.org/ns#" xmlns:rdf="http://www.w3.org/1999/02/22-rdf-syntax-ns#" xmlns:svg="http://www.w3.org/2000/svg" xmlns="http://www.w3.org/2000/svg" xmlns:xlink="http://www.w3.org/1999/xlink" xmlns:sodipodi="http://sodipodi.sourceforge.net/DTD/sodipodi-0.dtd" xmlns:inkscape="http://www.inkscape.org/namespaces/inkscape" width="167.0869141pt" height="242.6669922pt" viewBox="0 0 167.0869141 242.6669922" xml:space="preserve" id="svg2" version="1.1" inkscape:version="0.48.0 r9654" sodipodi:docname="9_of_hearts.svg" inkscape:export-filename="/home/byron/art/cards/final/PNGs/9_of_hearts.png" inkscape:export-xdpi="215.44792" inkscape:export-ydpi="215.44792"><metadata id="metadata43"><rdf:RDF><cc:Work rdf:about=""><dc:format>image/svg+xml</dc:format><dc:type rdf:resource="http://purl.org/dc/dcmitype/StillImage"/><dc:title/></cc:Work></rdf:RDF></metadata><defs id="defs41"><radialGradient inkscape:collect="always" xlink:href="#linearGradient3773" id="radialGradient3781" cx="-0.15782039" cy="-8.8345356" fx="-0.15782039" fy="-8.8345356" r="7.9997029" gradientTransform="matrix(-1.5842693,-0.02349808,0.03071979,-2.4775745,-0.24856378,-26.713507)" gradientUnits="userSpaceOnUse"/><linearGradient id="linearGradient3773"><stop style="stop-color:#000000;stop-opacity:1;" offset="0" id="stop3775"/><stop style="stop-color:#000000;stop-opacity:0.64885497;" offset="1" id="stop3777"/></linearGradient><radialGradient inkscape:collect="always" xlink:href="#linearGradient3773" id="radialGradient3957" cx="-0.15782039" cy="-8.8345356" fx="-0.15782039" fy="-8.8345356" r="7.9997029" gradientTransform="matrix(-1.5842693,-0.02349808,0.03071979,-2.4775745,-0.24856378,-26.713507)" gradientUnits="userSpaceOnUse"/><linearGradient id="linearGradient3959"><stop style="stop-color:#000000;stop-opacity:1;" offset="0" id="stop3961"/><stop style="stop-color:#000000;stop-opacity:0.64885497;" offset="1" id="stop3963"/></linearGradient><radialGradient r="81.902771" fy="509.47577" fx="168.02475" cy="509.47577" cx="168.02475" gradientTransform="matrix(1.2565605,-0.77740644,0.33663816,0.5361257,-221.20213,359.24256)" gradientUnits="userSpaceOnUse" id="radialGradient3975" xlink:href="#linearGradient3784-4" inkscape:collect="always"/><linearGradient id="linearGradient3784-4"><stop style="stop-color:#ffffff;stop-opacity:0.4351145;" offset="0" id="stop3786-8"/><stop style="stop-color:#000000;stop-opacity:0;" offset="1" id="stop3788-6"/></linearGradient><radialGradient inkscape:collect="always" xlink:href="#linearGradient3784-4-5" id="radialGradient3929" gradientUnits="userSpaceOnUse" gradientTransform="matrix(1.2565605,-0.77740644,0.33663816,0.5361257,-221.20213,359.24256)" cx="168.02475" cy="509.47577" fx="168.02475" fy="509.47577" r="81.902771"/><linearGradient id="linearGradient3784-4-5"><stop style="stop-color:#ffffff;stop-opacity:0.48854962;" offset="0" id="stop3786-8-0"/><stop style="stop-color:#000000;stop-opacity:0;" offset="1" id="stop3788-6-3"/></linearGradient><radialGradient inkscape:collect="always" xlink:href="#linearGradient3784-4-1" id="radialGradient3927" gradientUnits="userSpaceOnUse" gradientTransform="matrix(1.2565605,-0.77740644,0.33663816,0.5361257,-221.20213,359.24256)" cx="168.02475" cy="509.47577" fx="168.02475" fy="509.47577" r="81.902771"/><linearGradient id="linearGradient3784-4-1"><stop style="stop-color:#ffffff;stop-opacity:0.23664123;" offset="0" id="stop3786-8-03"/><stop style="stop-color:#000000;stop-opacity:0;" offset="1" id="stop3788-6-6"/></linearGradient><radialGradient inkscape:collect="always" xlink:href="#linearGradient3768" id="radialGradient3776" cx="-0.20602037" cy="-4.5786963" fx="-0.20602037" fy="-4.5786963" r="8" gradientTransform="matrix(-1,0,0,-1.7201755,-0.41204074,-13.027194)" gradientUnits="userSpaceOnUse"/><linearGradient id="linearGradient3768"><stop style="stop-color:#df0000;stop-opacity:1;" offset="0" id="stop3770"/><stop style="stop-color:#df0000;stop-opacity:0.67175573;" offset="1" id="stop3772"/></linearGradient><radialGradient r="81.902771" fy="511.22299" fx="171.48665" cy="511.22299" cx="171.48665" gradientTransform="matrix(1.1529891,-0.67391547,0.39482025,0.67549043,-233.63262,270.40076)" gradientUnits="userSpaceOnUse" id="radialGradient4013" xlink:href="#linearGradient3784-4-6" inkscape:collect="always"/><linearGradient id="linearGradient3784-4-6"><stop style="stop-color:#ffffff;stop-opacity:0.31297711;" offset="0" id="stop3786-8-8"/><stop style="stop-color:#000000;stop-opacity:0;" offset="1" id="stop3788-6-8"/></linearGradient><radialGradient r="81.902771" fy="492.63205" fx="159.35434" cy="492.63205" cx="159.35434" gradientTransform="matrix(1.0894779,-0.71513803,0.44645273,0.65626582,-244.93331,290.9185)" gradientUnits="userSpaceOnUse" id="radialGradient4013-8" xlink:href="#linearGradient3784-4-2" inkscape:collect="always"/><linearGradient id="linearGradient3784-4-2"><stop style="stop-color:#ffffff;stop-opacity:0.29007635;" offset="0" id="stop3786-8-1"/><stop style="stop-color:#000000;stop-opacity:0;" offset="1" id="stop3788-6-5"/></linearGradient><radialGradient r="81.902771" fy="492.63205" fx="159.35434" cy="492.63205" cx="159.35434" gradientTransform="matrix(1.0894779,-0.71513803,0.44645273,0.65626582,-244.93331,290.9185)" gradientUnits="userSpaceOnUse" id="radialGradient3073" xlink:href="#linearGradient3784-4-2" inkscape:collect="always"/></defs><sodipodi:namedview pagecolor="#ffffff" bordercolor="#666666" borderopacity="1" objecttolerance="10" gridtolerance="10" guidetolerance="10" inkscape:pageopacity="0" inkscape:pageshadow="2" inkscape:window-width="1680" inkscape:window-height="977" id="namedview39" showgrid="false" inkscape:zoom="1.7208768" inkscape:cx="-0.38353415" inkscape:cy="147.27218" inkscape:window-x="0" inkscape:window-y="25" inkscape:window-maximized="1" inkscape:current-layer="svg2"/><g id="Layer_x0020_1" style="fill-rule:nonzero;clip-rule:nonzero;stroke:#C0C0C0;stroke-miterlimit:4;"><path style="fill:#FFFFFF;stroke-width:1.5;" d="M166.84 235.55c0 3.78-3.09 6.87-6.87 6.87h-152.86c-3.77 0-6.86-3.1-6.86-6.87v-228.43c0-3.78 3.09-6.87 6.86-6.87h152.86c3.78 0 6.87 3.1 6.87 6.87z" id="path5"/><g style="stroke:none;" id="g7"><g id="g9"/></g><g id="g15"/><g id="g19"/><g style="stroke:none;" id="g23"><g id="g25"/></g><g style="stroke:none;" id="g31"><g id="g33"/></g></g><g transform="matrix(1.1121828,0,0,1.0408972,11.308902,38.465882)" id="layer1-9-6" style="fill:#df0000;fill-opacity:1"><path style="fill:#df0000;fill-opacity:1" inkscape:connector-curvature="0" id="hl-8" d="M3.68-9c-3.25 0-3.68 3.48-3.68 3.48 0 0-.43-3.48-3.68-3.48-2.27 0-4.32 1.56-4.32 4.5 0 3.89 6.58 7.8 8 13.5 1.35-5.7 8-9.61 8-13.5 0-2.94-2.05-4.5-4.32-4.5z" sodipodi:nodetypes="scsscss"/></g><g transform="matrix(-1.1121828,0,0,-1.0408972,156.08206,203.92397)" id="layer1-9-6-5" style="fill:#df0000;fill-opacity:1"><path style="fill:#df0000;fill-opacity:1" inkscape:connector-curvature="0" id="hl-8-1" d="M3.68-9c-3.25 0-3.68 3.48-3.68 3.48 0 0-.43-3.48-3.68-3.48-2.27 0-4.32 1.56-4.32 4.5 0 3.89 6.58 7.8 8 13.5 1.35-5.7 8-9.61 8-13.5 0-2.94-2.05-4.5-4.32-4.5z" sodipodi:nodetypes="scsscss"/></g><g transform="matrix(2.7790082,0,0,2.600887,54.512268,30.003768)" id="layer1-9-6-8" style="fill:#df0000;fill-opacity:1"><path style="fill:#df0000;fill-opacity:1" inkscape:connector-curvature="0" id="hl-8-8" d="M3.68-9c-3.25 0-3.68 3.48-3.68 3.48 0 0-.43-3.48-3.68-3.48-2.27 0-4.32 1.56-4.32 4.5 0 3.89 6.58 7.8 8 13.5 1.35-5.7 8-9.61 8-13.5 0-2.94-2.05-4.5-4.32-4.5z" sodipodi:nodetypes="scsscss"/></g><g transform="matrix(-2.7790082,0,0,-2.600887,54.512268,212.80617)" id="layer1-9-6-8-9" style="fill:#df0000;fill-opacity:1"><path style="fill:#df0000;fill-opacity:1" inkscape:connector-curvature="0" id="hl-8-8-5" d="M3.68-9c-3.25 0-3.68 3.48-3.68 3.48 0 0-.43-3.48-3.68-3.48-2.27 0-4.32 1.56-4.32 4.5 0 3.89 6.58 7.8 8 13.5 1.35-5.7 8-9.61 8-13.5 0-2.94-2.05-4.5-4.32-4.5z" sodipodi:nodetypes="scsscss"/></g><g transform="matrix(2.7790082,0,0,2.600887,54.512268,95.238623)" id="layer1-9-6-8-8" style="fill:#df0000;fill-opacity:1"><path style="fill:#df0000;fill-opacity:1" inkscape:connector-curvature="0" id="hl-8-8-8" d="M3.68-9c-3.25 0-3.68 3.48-3.68 3.48 0 0-.43-3.48-3.68-3.48-2.27 0-4.32 1.56-4.32 4.5 0 3.89 6.58 7.8 8 13.5 1.35-5.7 8-9.61 8-13.5 0-2.94-2.05-4.5-4.32-4.5z" sodipodi:nodetypes="scsscss"/></g><g transform="matrix(-2.7790082,0,0,-2.600887,54.512268,145.35601)" id="layer1-9-6-8-884-8" style="fill:#df0000;fill-opacity:1"><path style="fill:#df0000;fill-opacity:1" inkscape:connector-curvature="0" id="hl-8-8-3-8" d="M3.68-9c-3.25 0-3.68 3.48-3.68 3.48 0 0-.43-3.48-3.68-3.48-2.27 0-4.32 1.56-4.32 4.5 0 3.89 6.58 7.8 8 13.5 1.35-5.7 8-9.61 8-13.5 0-2.94-2.05-4.5-4.32-4.5z" sodipodi:nodetypes="scsscss"/></g><g transform="matrix(2.7790082,0,0,2.600887,111.99088,30.602538)" id="layer1-9-6-8-7" style="fill:#df0000;fill-opacity:1"><path style="fill:#df0000;fill-opacity:1" inkscape:connector-curvature="0" id="hl-8-8-1" d="M3.68-9c-3.25 0-3.68 3.48-3.68 3.48 0 0-.43-3.48-3.68-3.48-2.27 0-4.32 1.56-4.32 4.5 0 3.89 6.58 7.8 8 13.5 1.35-5.7 8-9.61 8-13.5 0-2.94-2.05-4.5-4.32-4.5z" sodipodi:nodetypes="scsscss"/></g><g transform="matrix(-2.7790082,0,0,-2.600887,111.99088,213.40494)" id="layer1-9-6-8-9-7" style="fill:#df0000;fill-opacity:1"><path style="fill:#df0000;fill-opacity:1" inkscape:connector-curvature="0" id="hl-8-8-5-2" d="M3.68-9c-3.25 0-3.68 3.48-3.68 3.48 0 0-.43-3.48-3.68-3.48-2.27 0-4.32 1.56-4.32 4.5 0 3.89 6.58 7.8 8 13.5 1.35-5.7 8-9.61 8-13.5 0-2.94-2.05-4.5-4.32-4.5z" sodipodi:nodetypes="scsscss"/></g><g transform="matrix(2.7790082,0,0,2.600887,111.99088,95.837397)" id="layer1-9-6-8-8-7" style="fill:#df0000;fill-opacity:1"><path style="fill:#df0000;fill-opacity:1" inkscape:connector-curvature="0" id="hl-8-8-8-2" d="M3.68-9c-3.25 0-3.68 3.48-3.68 3.48 0 0-.43-3.48-3.68-3.48-2.27 0-4.32 1.56-4.32 4.5 0 3.89 6.58 7.8 8 13.5 1.35-5.7 8-9.61 8-13.5 0-2.94-2.05-4.5-4.32-4.5z" sodipodi:nodetypes="scsscss"/></g><g transform="matrix(-2.7790082,0,0,-2.600887,111.99088,145.95478)" id="layer1-9-6-8-884-8-2" style="fill:#df0000;fill-opacity:1"><path style="fill:#df0000;fill-opacity:1" inkscape:connector-curvature="0" id="hl-8-8-3-8-6" d="M3.68-9c-3.25 0-3.68 3.48-3.68 3.48 0 0-.43-3.48-3.68-3.48-2.27 0-4.32 1.56-4.32 4.5 0 3.89 6.58 7.8 8 13.5 1.35-5.7 8-9.61 8-13.5 0-2.94-2.05-4.5-4.32-4.5z" sodipodi:nodetypes="scsscss"/></g><g transform="matrix(2.7790082,0,0,2.600887,83.213391,62.704546)" id="layer1-9-6-8-91" style="fill:#df0000;fill-opacity:1"><path style="fill:#df0000;fill-opacity:1" inkscape:connector-curvature="0" id="hl-8-8-7" d="M3.68-9c-3.25 0-3.68 3.48-3.68 3.48 0 0-.43-3.48-3.68-3.48-2.27 0-4.32 1.56-4.32 4.5 0 3.89 6.58 7.8 8 13.5 1.35-5.7 8-9.61 8-13.5 0-2.94-2.05-4.5-4.32-4.5z" sodipodi:nodetypes="scsscss"/></g><path d="M17.16 16.56q0 5.67-2.07 8.72-2.07 3.05-5.9 3.05-2.58 0-4.13-1.09-1.56-1.09-2.23-3.51l2.69-.42q.84 2.75 3.72 2.75 2.42 0 3.75-2.25 1.33-2.25 1.39-6.42-.62 1.4-2.14 2.26-1.52.85-3.33.85-1.97 0-3.44-.92-1.47-.93-2.28-2.6-.81-1.67-.81-3.9 0-3.46 1.94-5.43 1.93-1.98 5.39-1.98 3.67 0 5.56 2.72 1.89 2.72 1.89 8.17Zm-3.06-2.72q0-2.65-1.22-4.27-1.22-1.62-3.27-1.62-2.03 0-3.2 1.38-1.17 1.39-1.17 3.75 0 2.4 1.17 3.8 1.17 1.4 3.17 1.4 1.22 0 2.25-.56 1.02-.57 1.64-1.57.63-1.01.63-2.31Z" style="fill:#df0000;fill-opacity:1;stroke:none" id="text3788-43" class="rank-index"/><path d="M142.54 224.97q0-5.67 2.07-8.72 2.07-3.05 5.9-3.05 2.57 0 4.13 1.09 1.55 1.08 2.22 3.51l-2.68.42q-.85-2.75-3.72-2.75-2.42 0-3.75 2.25-1.33 2.25-1.39 6.42.62-1.41 2.14-2.26 1.51-.85 3.33-.85 1.97 0 3.43.92 1.47.92 2.29 2.6.81 1.67.81 3.9 0 3.46-1.94 5.43-1.94 1.98-5.39 1.98-3.67 0-5.56-2.72-1.89-2.72-1.89-8.17Zm3.06 2.72q0 2.65 1.22 4.27 1.22 1.62 3.26 1.62 2.03 0 3.21-1.39 1.17-1.38 1.17-3.74 0-2.4-1.17-3.8-1.18-1.4-3.18-1.4-1.21 0-2.24.56-1.02.56-1.65 1.57-.62 1.01-.62 2.31Z" style="fill:#df0000;fill-opacity:1;stroke:none" id="text3788-43-3" class="rank-index mirror"/></svg>